<svg width="130" height="22" viewBox="0 0 130 22" fill="none" xmlns="http://www.w3.org/2000/svg">
<g clip-path="url(#clip0_40825_1944)">
<path d="M117.7 9.7L111.5 1.6C111.1 1.2 110.6 1 110.1 1C109.6 1 109.1 1.2 108.7 1.6C108 2.4 108 3.6 108.7 4.4L113.6 11L108.7 17.6C108 18.4 108 19.6 108.7 20.4C109.1 20.8 109.6 21 110.1 21C110.6 21 111.1 20.8 111.5 20.4L117.7 12.3C118.4 11.7 118.4 10.5 117.7 9.7Z" fill="#FF3F3A"/>
<path d="M120.343 9.7L126.543 1.6C126.943 1.2 127.443 1 127.943 1C128.443 1 128.943 1.2 129.343 1.6C130.043 2.4 130.043 3.6 129.343 4.4L124.443 11L129.343 17.6C130.043 18.4 130.043 19.6 129.343 20.4C128.943 20.8 128.443 21 127.943 21C127.443 21 126.943 20.8 126.543 20.4L120.343 12.3C119.643 11.7 119.643 10.5 120.343 9.7Z" fill="#FF3F3A"/>
</g>
<defs>
<clipPath id="clip0_40825_1944">
<rect width="130" height="22" fill="white"/>
</clipPath>
</defs>
</svg>
